<svg version="1.1" id="Layer_1" xmlns="http://www.w3.org/2000/svg" xmlns:xlink="http://www.w3.org/1999/xlink" x="0px" y="0px"
	 width="100%" viewBox="0 0 1470 606" enable-background="new 0 0 1470 606" xml:space="preserve">
<path fill="#F9F9F9" opacity="1.000000" stroke="none" 
	d="
M985.000000,607.000000 
	C656.706055,607.000000 328.912170,607.000000 1.059119,607.000000 
	C1.059119,405.063721 1.059119,203.127411 1.059119,1.095547 
	C490.877380,1.095547 980.754822,1.095547 1470.816162,1.095547 
	C1470.816162,202.999863 1470.816162,404.999908 1470.816162,607.000000 
	C1309.127197,607.000000 1147.313599,607.000000 985.000000,607.000000 
M280.001312,326.500000 
	C280.001160,293.016815 280.033295,259.533600 279.991547,226.050476 
	C279.952423,194.679321 255.641174,170.197952 224.301208,170.140732 
	C175.492447,170.051636 126.683243,170.045532 77.874512,170.144592 
	C47.076817,170.207092 22.509235,194.413315 22.356367,225.273575 
	C22.111298,274.747620 22.115967,324.224640 22.354521,373.698730 
	C22.503326,404.559937 47.061653,428.791412 77.846794,428.854736 
	C126.822098,428.955475 175.798004,428.976105 224.773178,428.846985 
	C255.524979,428.765930 279.881714,404.202667 279.991180,373.476990 
	C280.045776,358.151489 280.001099,342.825684 280.001312,326.500000 
M450.542664,326.497253 
	C450.542053,330.494751 450.724091,334.505371 450.439178,338.482513 
	C450.342865,339.827576 449.382965,341.764954 448.278473,342.283997 
	C434.906067,348.568237 411.265076,348.626892 399.414825,332.268188 
	C393.362610,323.913269 391.460724,314.391327 391.283630,304.460999 
	C390.771576,275.749603 410.470398,254.824432 441.477936,260.981964 
	C447.841064,262.245575 453.965424,264.711334 460.341278,266.666321 
	C460.370667,266.123322 460.446381,265.322845 460.451385,264.521912 
	C460.466980,262.023590 460.736237,259.479767 460.342499,257.044891 
	C460.130188,255.731812 459.009918,253.882401 457.884308,253.501617 
	C437.926544,246.750214 418.248932,245.991470 400.375031,258.977661 
	C380.916534,273.115143 376.462006,293.340302 379.710510,315.843750 
	C382.275360,333.611359 391.590851,346.972961 408.622955,353.477509 
	C426.218658,360.197296 443.557953,357.520569 460.135345,349.315613 
	C461.387482,348.695862 462.336426,346.196503 462.357819,344.556946 
	C462.534058,331.067810 462.464600,317.575378 462.445618,304.083954 
	C462.443817,302.794739 462.278137,301.505829 462.193420,300.286987 
	C450.637177,300.286987 439.381714,300.286987 428.207611,300.286987 
	C428.207611,304.315430 428.207611,308.044678 428.207611,312.140991 
	C435.796753,312.140991 443.072662,312.140991 450.542725,312.140991 
	C450.542725,316.849792 450.542725,321.175232 450.542664,326.497253 
M934.823914,345.674896 
	C937.694946,347.650970 940.358276,350.069183 943.470886,351.530762 
	C962.495117,360.464203 981.220154,358.137482 999.541382,349.290344 
	C1000.794312,348.685364 1001.728882,346.168274 1001.769531,344.514832 
	C1001.986511,335.692535 1001.871765,326.862091 1001.871765,318.034485 
	C1001.871765,312.103119 1001.871826,306.171783 1001.871826,299.989624 
	C995.587341,299.989624 989.942200,299.989624 984.296997,299.989624 
	C978.689453,299.989624 973.081909,299.989624 967.444702,299.989624 
	C967.444702,304.287994 967.444702,308.010254 967.444702,312.138397 
	C975.010620,312.138397 982.268494,312.138397 989.880249,312.138397 
	C989.880249,321.337646 989.957214,330.130432 989.786560,338.918396 
	C989.764221,340.064789 988.734558,341.774414 987.723083,342.231964 
	C970.699890,349.932953 941.006592,348.459534 933.097839,320.268188 
	C931.205566,313.523010 930.748718,306.117004 931.021179,299.068604 
	C932.053406,272.363220 953.587036,255.513809 979.754578,260.754639 
	C986.468567,262.099304 992.953796,264.586304 999.871826,266.646057 
	C999.871826,264.465393 999.570007,261.976044 999.938965,259.590454 
	C1000.573181,255.490738 998.799438,253.699219 995.037842,252.530899 
	C982.723389,248.706070 970.255493,247.476746 957.711670,250.636627 
	C938.124817,255.570648 925.066956,268.070007 920.304565,287.526306 
	C915.106995,308.760376 917.365112,328.959412 934.823914,345.674896 
M673.824402,346.989990 
	C660.005676,345.479218 651.537415,335.062866 652.988464,321.043823 
	C669.908447,321.043823 686.861023,321.043823 703.778809,321.043823 
	C703.778809,315.801392 704.253479,310.785522 703.685669,305.890594 
	C702.248779,293.504700 696.923889,283.600128 684.248352,279.451019 
	C671.499939,275.278046 658.310791,279.214539 649.546448,289.478882 
	C637.929749,303.083740 636.890015,330.374908 647.430359,344.745392 
	C651.628662,350.469391 657.208435,354.253876 664.049072,355.890839 
	C673.155579,358.070007 682.202637,357.336639 691.003174,354.203094 
	C699.891052,351.038513 700.673584,349.436279 698.519958,339.615173 
	C691.374268,344.776001 683.543030,347.556213 673.824402,346.989990 
M1158.403076,333.677643 
	C1157.476562,329.661804 1156.549927,325.645966 1155.447266,320.867065 
	C1173.468018,320.867065 1190.682373,320.867065 1208.313477,320.867065 
	C1207.932007,315.253021 1207.800903,310.258514 1207.215698,305.317780 
	C1205.754761,292.983276 1200.276489,283.198639 1187.778687,279.472656 
	C1174.547607,275.528015 1162.732422,278.612793 1153.443848,289.222412 
	C1141.803711,302.517975 1140.520874,329.476196 1150.658569,344.113098 
	C1154.813354,350.111755 1160.461426,354.101288 1167.473999,355.835815 
	C1176.571899,358.086151 1185.635498,357.364014 1194.461548,354.281036 
	C1203.380127,351.165771 1203.987671,349.980865 1202.495605,340.099457 
	C1198.628174,341.875366 1194.890503,344.014771 1190.885376,345.354645 
	C1176.656738,350.114563 1164.994873,346.004211 1158.403076,333.677643 
M504.979095,344.899261 
	C495.353210,339.962982 492.467407,331.433197 492.092255,321.007690 
	C500.911469,321.007690 509.388611,321.007721 517.865784,321.007721 
	C526.472046,321.007721 535.078369,321.007690 544.292786,321.007690 
	C543.914673,315.309479 543.816284,310.174652 543.189270,305.105164 
	C541.691956,292.998657 536.329712,283.349579 524.042847,279.572723 
	C511.030670,275.572876 499.319641,278.394592 489.952911,288.624451 
	C477.679047,302.029266 476.338959,330.003265 487.066284,344.697296 
	C491.258148,350.439240 496.833252,354.250000 503.679871,355.885529 
	C512.788757,358.061462 521.839905,357.350220 530.653015,354.193024 
	C539.624634,350.979004 540.394348,349.475037 538.230225,339.747314 
	C528.166687,346.405823 517.520996,349.454559 504.979095,344.899261 
M1020.392212,325.058563 
	C1016.453918,336.609528 1018.775635,347.213470 1026.608276,352.685608 
	C1032.661011,356.914276 1039.512451,357.712799 1046.628418,356.662323 
	C1054.019653,355.571136 1059.504150,351.257477 1064.674072,345.791321 
	C1064.674072,348.727753 1064.674072,351.664185 1064.674072,354.669006 
	C1068.797729,354.669006 1072.494751,354.669006 1076.142822,354.669006 
	C1076.142822,336.193909 1076.500977,318.047729 1076.006592,299.924835 
	C1075.716797,289.300232 1069.695190,281.749084 1060.720093,279.338257 
	C1049.479126,276.318909 1038.643677,278.085541 1028.382690,283.369324 
	C1027.261841,283.946472 1026.021851,285.404236 1025.889526,286.572723 
	C1025.540771,289.652893 1025.771484,292.798645 1025.771484,295.316254 
	C1031.781860,292.934448 1037.387451,289.954346 1043.364380,288.496796 
	C1057.338501,285.088959 1065.961304,293.201050 1064.337769,308.019196 
	C1057.393066,309.004059 1050.326782,309.914673 1043.292358,311.026459 
	C1034.038330,312.489014 1025.364502,315.044647 1020.392212,325.058563 
M620.556213,293.026672 
	C617.525757,284.857727 611.796265,279.719727 603.166016,278.367065 
	C591.130554,276.480743 581.448120,280.686859 573.639771,292.046173 
	C573.639771,287.045868 573.639771,283.658813 573.639771,280.244843 
	C569.534790,280.244843 565.945374,280.244843 562.264282,280.244843 
	C562.264282,305.226196 562.264282,329.947693 562.264282,354.771729 
	C566.118896,354.771729 569.701355,354.771729 573.730591,354.771729 
	C573.730591,352.908691 573.730530,351.282623 573.730530,349.656555 
	C573.730713,337.495636 573.722595,325.334717 573.734375,313.173798 
	C573.741333,306.006500 574.969360,299.253479 580.214111,293.817474 
	C585.439514,288.401581 591.855103,286.831055 598.937378,288.502441 
	C605.751221,290.110474 608.987183,295.290619 610.126038,301.780731 
	C610.783264,305.526276 611.049866,309.380280 611.079956,313.188721 
	C611.188660,326.970551 611.122742,340.753784 611.122742,354.716156 
	C615.286804,354.716156 619.001648,354.716156 622.961426,354.716156 
	C622.961426,338.788269 623.118591,323.154297 622.864197,307.527069 
	C622.789307,302.926880 621.549011,298.345673 620.556213,293.026672 
M1270.000610,336.333984 
	C1270.554077,328.083435 1266.771729,322.133331 1259.727051,318.427094 
	C1253.881226,315.351532 1247.658081,313.001587 1241.666748,310.192078 
	C1235.427612,307.266449 1232.534058,302.032349 1233.818726,296.393036 
	C1234.937256,291.482422 1239.968262,287.721985 1246.520142,288.141693 
	C1253.161011,288.567078 1259.734863,290.034698 1266.726318,291.105286 
	C1266.726318,290.090393 1266.449341,288.275116 1266.779297,286.577850 
	C1267.697876,281.852661 1265.258301,279.554779 1261.108765,279.361877 
	C1253.885864,279.026093 1246.468628,278.276642 1239.438599,279.482941 
	C1229.248413,281.231537 1222.526733,288.838348 1221.642822,297.247101 
	C1220.515015,307.978241 1224.302979,314.254913 1235.294922,319.594635 
	C1238.270508,321.040131 1241.435913,322.092773 1244.423706,323.515961 
	C1247.699951,325.076599 1251.050903,326.591248 1254.041626,328.611267 
	C1257.532837,330.969299 1258.646851,334.658478 1257.820557,338.751495 
	C1257.016357,342.735443 1254.338135,345.036804 1250.484253,346.038391 
	C1241.701294,348.320953 1233.402100,346.858307 1225.449219,342.767731 
	C1224.217407,342.134186 1222.988647,341.495209 1221.273682,340.607941 
	C1221.273682,343.493896 1221.575806,345.691528 1221.210205,347.771820 
	C1220.471313,351.976135 1222.499512,354.167908 1226.222290,354.721924 
	C1232.584473,355.668732 1239.058960,357.113159 1245.392822,356.744690 
	C1259.780151,355.907745 1268.139038,348.790680 1270.000610,336.333984 
M760.821533,321.675140 
	C753.451355,317.960175 746.218201,313.933563 738.673462,310.615662 
	C730.733765,307.124176 729.407959,300.766479 730.232422,296.509247 
	C731.208069,291.471405 736.588501,287.693268 743.401672,288.132874 
	C749.893494,288.551758 756.319092,289.996948 763.110229,291.042755 
	C763.110229,288.972443 763.295044,286.008209 763.007446,283.090576 
	C762.910034,282.101471 761.790283,280.682739 760.847656,280.387970 
	C749.117249,276.719421 737.491211,276.444916 726.850891,283.462250 
	C714.345398,291.709656 714.776550,309.442719 727.565430,317.191589 
	C731.505371,319.578796 735.977661,321.072266 740.130798,323.127319 
	C743.828186,324.956970 747.756958,326.562256 750.979736,329.049164 
	C755.522949,332.555023 756.069397,339.862366 751.892944,343.109100 
	C749.201294,345.201538 745.395874,346.395294 741.937317,346.861267 
	C733.442871,348.005676 725.650940,345.237488 717.883789,340.464813 
	C717.883789,343.358582 718.174744,345.531494 717.823486,347.595093 
	C717.080322,351.961243 719.200745,353.824005 723.063721,354.934753 
	C732.587708,357.673187 742.095093,357.995575 751.503967,354.785156 
	C766.685974,349.604828 771.356140,333.881042 760.821533,321.675140 
M836.528320,346.991394 
	C829.729248,345.381622 822.930176,343.771820 815.883789,342.103485 
	C815.883789,343.479034 816.130249,345.781433 815.828918,348.009735 
	C815.311951,351.832428 816.893799,353.694489 820.504089,354.751740 
	C829.478455,357.379730 838.431519,358.016205 847.478821,355.328308 
	C857.833801,352.251892 863.713684,345.993408 864.415161,337.372833 
	C865.208008,327.630676 861.339661,321.582367 850.750854,316.516388 
	C845.976746,314.232300 840.978577,312.419891 836.175537,310.192108 
	C830.142395,307.393799 826.959412,301.686584 828.220459,296.382538 
	C829.371460,291.541870 834.545898,287.719635 841.014771,288.136169 
	C847.663757,288.564270 854.247375,290.008820 861.116211,291.047394 
	C861.116211,290.085205 860.837891,288.229584 861.169617,286.490387 
	C862.073608,281.751556 859.589233,279.530426 855.463074,279.329468 
	C848.399170,278.985382 841.165527,278.282074 834.263306,279.373871 
	C824.294922,280.950623 817.122559,288.685669 816.089050,296.893463 
	C814.765686,307.402039 818.713379,314.114197 829.505005,319.416443 
	C832.622131,320.947998 835.934204,322.080322 839.067017,323.583252 
	C842.337952,325.152557 845.687866,326.675262 848.660095,328.717682 
	C851.937683,330.969940 852.983582,334.449280 852.329773,338.418945 
	C851.653381,342.526093 849.106384,344.956848 845.275879,345.926544 
	C842.734741,346.569824 840.052429,346.655884 836.528320,346.991394 
M1132.890869,289.264984 
	C1132.890869,286.314880 1132.890869,283.364777 1132.890869,279.988007 
	C1126.628784,279.988007 1120.700806,279.988007 1114.236084,279.988007 
	C1114.236084,272.513885 1114.236084,265.472260 1114.236084,258.222778 
	C1111.781738,258.959259 1109.927124,259.743561 1107.996826,260.048309 
	C1103.765259,260.716370 1102.263672,262.922577 1102.690796,267.213043 
	C1103.097168,271.294617 1102.778198,275.448395 1102.778198,280.193176 
	C1098.282715,280.193176 1094.248535,280.193176 1090.410889,280.193176 
	C1090.410889,283.774139 1090.410889,286.714844 1090.410889,290.098816 
	C1094.587769,290.098816 1098.506348,290.098816 1102.778198,290.098816 
	C1102.778198,292.185974 1102.774414,293.817322 1102.778687,295.448669 
	C1102.816406,309.607330 1102.659790,323.770050 1102.952637,337.923431 
	C1103.216064,350.650574 1110.211304,357.121185 1122.864746,357.003754 
	C1132.501465,356.914307 1133.436768,355.942078 1132.867310,346.549103 
	C1132.852661,346.308167 1132.548340,346.084778 1132.384766,345.860931 
	C1120.155151,348.957153 1115.012695,346.216644 1114.668701,335.323975 
	C1114.196655,320.378326 1114.550659,305.406647 1114.550659,289.893097 
	C1120.584351,289.893097 1126.382812,289.893097 1132.890869,289.264984 
M796.434326,307.500244 
	C796.434326,298.428314 796.434326,289.356384 796.434326,280.310394 
	C792.239380,280.310394 788.671082,280.310394 785.197754,280.310394 
	C785.197754,305.326477 785.197754,330.029602 785.197754,354.711487 
	C789.094849,354.711487 792.680481,354.711487 796.434387,354.711487 
	C796.434387,339.114807 796.434387,323.807556 796.434326,307.500244 
M783.199158,252.751099 
	C783.425171,254.036240 783.385803,255.447540 783.925720,256.583527 
	C785.737976,260.396179 788.972717,261.706573 792.944397,260.743164 
	C796.893616,259.785217 799.192505,255.903702 798.287354,251.942612 
	C797.339905,247.796448 794.460815,245.841324 790.343201,246.039276 
	C786.630371,246.217789 784.349243,248.451904 783.199158,252.751099 
z"/>
<path fill="#574CDC" opacity="1.000000" stroke="none" 
	d="
M280.001312,327.000000 
	C280.001099,342.825684 280.045776,358.151489 279.991180,373.476990 
	C279.881714,404.202667 255.524979,428.765930 224.773178,428.846985 
	C175.798004,428.976105 126.822098,428.955475 77.846794,428.854736 
	C47.061653,428.791412 22.503326,404.559937 22.354521,373.698730 
	C22.115967,324.224640 22.111298,274.747620 22.356367,225.273575 
	C22.509235,194.413315 47.076817,170.207092 77.874512,170.144592 
	C126.683243,170.045532 175.492447,170.051636 224.301208,170.140732 
	C255.641174,170.197952 279.952423,194.679321 279.991547,226.050476 
	C280.033295,259.533600 280.001160,293.016815 280.001312,327.000000 
M178.151398,319.340332 
	C184.781708,332.542725 191.412003,345.745148 198.192963,359.247528 
	C203.832932,356.414429 209.094009,353.771637 214.595215,351.008240 
	C193.463196,308.307556 172.626236,266.203064 151.207336,222.922699 
	C129.750381,266.235077 108.834679,308.454895 87.766563,350.982330 
	C93.503593,353.848297 98.775002,356.481628 104.356430,359.269867 
	C120.008598,327.546753 135.403870,296.344330 151.251251,264.225555 
	C160.496613,283.125580 169.184952,300.886932 178.151398,319.340332 
z"/>
<path fill="#171B29" opacity="1.000000" stroke="none" 
	d="
M450.542694,325.998962 
	C450.542725,321.175232 450.542725,316.849792 450.542725,312.140991 
	C443.072662,312.140991 435.796753,312.140991 428.207611,312.140991 
	C428.207611,308.044678 428.207611,304.315430 428.207611,300.286987 
	C439.381714,300.286987 450.637177,300.286987 462.193420,300.286987 
	C462.278137,301.505829 462.443817,302.794739 462.445618,304.083954 
	C462.464600,317.575378 462.534058,331.067810 462.357819,344.556946 
	C462.336426,346.196503 461.387482,348.695862 460.135345,349.315613 
	C443.557953,357.520569 426.218658,360.197296 408.622955,353.477509 
	C391.590851,346.972961 382.275360,333.611359 379.710510,315.843750 
	C376.462006,293.340302 380.916534,273.115143 400.375031,258.977661 
	C418.248932,245.991470 437.926544,246.750214 457.884308,253.501617 
	C459.009918,253.882401 460.130188,255.731812 460.342499,257.044891 
	C460.736237,259.479767 460.466980,262.023590 460.451385,264.521912 
	C460.446381,265.322845 460.370667,266.123322 460.341278,266.666321 
	C453.965424,264.711334 447.841064,262.245575 441.477936,260.981964 
	C410.470398,254.824432 390.771576,275.749603 391.283630,304.460999 
	C391.460724,314.391327 393.362610,323.913269 399.414825,332.268188 
	C411.265076,348.626892 434.906067,348.568237 448.278473,342.283997 
	C449.382965,341.764954 450.342865,339.827576 450.439178,338.482513 
	C450.724091,334.505371 450.542053,330.494751 450.542694,325.998962 
z"/>
<path fill="#191D2B" opacity="1.000000" stroke="none" 
	d="
M934.565125,345.434631 
	C917.365112,328.959412 915.106995,308.760376 920.304565,287.526306 
	C925.066956,268.070007 938.124817,255.570648 957.711670,250.636627 
	C970.255493,247.476746 982.723389,248.706070 995.037842,252.530899 
	C998.799438,253.699219 1000.573181,255.490738 999.938965,259.590454 
	C999.570007,261.976044 999.871826,264.465393 999.871826,266.646057 
	C992.953796,264.586304 986.468567,262.099304 979.754578,260.754639 
	C953.587036,255.513809 932.053406,272.363220 931.021179,299.068604 
	C930.748718,306.117004 931.205566,313.523010 933.097839,320.268188 
	C941.006592,348.459534 970.699890,349.932953 987.723083,342.231964 
	C988.734558,341.774414 989.764221,340.064789 989.786560,338.918396 
	C989.957214,330.130432 989.880249,321.337646 989.880249,312.138397 
	C982.268494,312.138397 975.010620,312.138397 967.444702,312.138397 
	C967.444702,308.010254 967.444702,304.287994 967.444702,299.989624 
	C973.081909,299.989624 978.689453,299.989624 984.296997,299.989624 
	C989.942200,299.989624 995.587341,299.989624 1001.871826,299.989624 
	C1001.871826,306.171783 1001.871765,312.103119 1001.871765,318.034485 
	C1001.871765,326.862091 1001.986511,335.692535 1001.769531,344.514832 
	C1001.728882,346.168274 1000.794312,348.685364 999.541382,349.290344 
	C981.220154,358.137482 962.495117,360.464203 943.470886,351.530762 
	C940.358276,350.069183 937.694946,347.650970 934.565125,345.434631 
z"/>
<path fill="#181C29" opacity="1.000000" stroke="none" 
	d="
M674.271057,346.991028 
	C683.543030,347.556213 691.374268,344.776001 698.519958,339.615173 
	C700.673584,349.436279 699.891052,351.038513 691.003174,354.203094 
	C682.202637,357.336639 673.155579,358.070007 664.049072,355.890839 
	C657.208435,354.253876 651.628662,350.469391 647.430359,344.745392 
	C636.890015,330.374908 637.929749,303.083740 649.546448,289.478882 
	C658.310791,279.214539 671.499939,275.278046 684.248352,279.451019 
	C696.923889,283.600128 702.248779,293.504700 703.685669,305.890594 
	C704.253479,310.785522 703.778809,315.801392 703.778809,321.043823 
	C686.861023,321.043823 669.908447,321.043823 652.988464,321.043823 
	C651.537415,335.062866 660.005676,345.479218 674.271057,346.991028 
M688.476990,295.194733 
	C682.951416,288.460388 675.923523,286.249359 668.098328,288.783386 
	C659.204773,291.663391 653.509155,299.924561 653.019348,310.802307 
	C665.975647,310.802307 678.924561,310.802307 693.201294,310.802307 
	C691.659119,305.461548 690.268066,300.644379 688.476990,295.194733 
z"/>
<path fill="#181C29" opacity="1.000000" stroke="none" 
	d="
M1158.596313,334.014709 
	C1164.994873,346.004211 1176.656738,350.114563 1190.885376,345.354645 
	C1194.890503,344.014771 1198.628174,341.875366 1202.495605,340.099457 
	C1203.987671,349.980865 1203.380127,351.165771 1194.461548,354.281036 
	C1185.635498,357.364014 1176.571899,358.086151 1167.473999,355.835815 
	C1160.461426,354.101288 1154.813354,350.111755 1150.658569,344.113098 
	C1140.520874,329.476196 1141.803711,302.517975 1153.443848,289.222412 
	C1162.732422,278.612793 1174.547607,275.528015 1187.778687,279.472656 
	C1200.276489,283.198639 1205.754761,292.983276 1207.215698,305.317780 
	C1207.800903,310.258514 1207.932007,315.253021 1208.313477,320.867065 
	C1190.682373,320.867065 1173.468018,320.867065 1155.447266,320.867065 
	C1156.549927,325.645966 1157.476562,329.661804 1158.596313,334.014709 
M1194.585327,300.242798 
	C1190.552734,290.550995 1183.541138,286.450928 1173.855713,288.121094 
	C1164.489746,289.736206 1157.436523,299.015686 1156.684204,310.696411 
	C1169.744507,310.696411 1182.803589,310.696411 1196.206543,310.696411 
	C1195.714722,307.237579 1195.271973,304.123505 1194.585327,300.242798 
z"/>
<path fill="#181C29" opacity="1.000000" stroke="none" 
	d="
M505.353699,345.012268 
	C517.520996,349.454559 528.166687,346.405823 538.230225,339.747314 
	C540.394348,349.475037 539.624634,350.979004 530.653015,354.193024 
	C521.839905,357.350220 512.788757,358.061462 503.679871,355.885529 
	C496.833252,354.250000 491.258148,350.439240 487.066284,344.697296 
	C476.338959,330.003265 477.679047,302.029266 489.952911,288.624451 
	C499.319641,278.394592 511.030670,275.572876 524.042847,279.572723 
	C536.329712,283.349579 541.691956,292.998657 543.189270,305.105164 
	C543.816284,310.174652 543.914673,315.309479 544.292786,321.007690 
	C535.078369,321.007690 526.472046,321.007721 517.865784,321.007721 
	C509.388611,321.007721 500.911469,321.007690 492.092255,321.007690 
	C492.467407,331.433197 495.353210,339.962982 505.353699,345.012268 
M522.458862,310.998474 
	C525.578430,310.998474 528.698059,310.998474 531.804321,310.998474 
	C531.828796,296.927063 525.763855,288.529541 515.610901,288.007080 
	C502.662598,287.340759 494.307251,295.537170 492.524200,310.657654 
	C492.840851,310.753235 493.157257,310.931305 493.474243,310.932434 
	C502.806732,310.965210 512.139282,310.980438 522.458862,310.998474 
z"/>
<path fill="#181C29" opacity="1.000000" stroke="none" 
	d="
M1020.571289,324.722992 
	C1025.364502,315.044647 1034.038330,312.489014 1043.292358,311.026459 
	C1050.326782,309.914673 1057.393066,309.004059 1064.337769,308.019196 
	C1065.961304,293.201050 1057.338501,285.088959 1043.364380,288.496796 
	C1037.387451,289.954346 1031.781860,292.934448 1025.771484,295.316254 
	C1025.771484,292.798645 1025.540771,289.652893 1025.889526,286.572723 
	C1026.021851,285.404236 1027.261841,283.946472 1028.382690,283.369324 
	C1038.643677,278.085541 1049.479126,276.318909 1060.720093,279.338257 
	C1069.695190,281.749084 1075.716797,289.300232 1076.006592,299.924835 
	C1076.500977,318.047729 1076.142822,336.193909 1076.142822,354.669006 
	C1072.494751,354.669006 1068.797729,354.669006 1064.674072,354.669006 
	C1064.674072,351.664185 1064.674072,348.727753 1064.674072,345.791321 
	C1059.504150,351.257477 1054.019653,355.571136 1046.628418,356.662323 
	C1039.512451,357.712799 1032.661011,356.914276 1026.608276,352.685608 
	C1018.775635,347.213470 1016.453918,336.609528 1020.571289,324.722992 
M1037.252197,322.544525 
	C1035.140015,325.127136 1031.879395,327.411652 1031.118042,330.344849 
	C1028.117798,341.904205 1037.698730,349.924011 1049.838013,346.474182 
	C1061.044922,343.289337 1066.701172,332.119720 1064.104980,317.077240 
	C1055.377686,318.778687 1046.657715,320.478668 1037.252197,322.544525 
z"/>
<path fill="#1B1F2C" opacity="1.000000" stroke="none" 
	d="
M620.699524,293.391235 
	C621.549011,298.345673 622.789307,302.926880 622.864197,307.527069 
	C623.118591,323.154297 622.961426,338.788269 622.961426,354.716156 
	C619.001648,354.716156 615.286804,354.716156 611.122742,354.716156 
	C611.122742,340.753784 611.188660,326.970551 611.079956,313.188721 
	C611.049866,309.380280 610.783264,305.526276 610.126038,301.780731 
	C608.987183,295.290619 605.751221,290.110474 598.937378,288.502441 
	C591.855103,286.831055 585.439514,288.401581 580.214111,293.817474 
	C574.969360,299.253479 573.741333,306.006500 573.734375,313.173798 
	C573.722595,325.334717 573.730713,337.495636 573.730530,349.656555 
	C573.730530,351.282623 573.730591,352.908691 573.730591,354.771729 
	C569.701355,354.771729 566.118896,354.771729 562.264282,354.771729 
	C562.264282,329.947693 562.264282,305.226196 562.264282,280.244843 
	C565.945374,280.244843 569.534790,280.244843 573.639771,280.244843 
	C573.639771,283.658813 573.639771,287.045868 573.639771,292.046173 
	C581.448120,280.686859 591.130554,276.480743 603.166016,278.367065 
	C611.796265,279.719727 617.525757,284.857727 620.699524,293.391235 
z"/>
<path fill="#191D2B" opacity="1.000000" stroke="none" 
	d="
M1269.997314,336.771729 
	C1268.139038,348.790680 1259.780151,355.907745 1245.392822,356.744690 
	C1239.058960,357.113159 1232.584473,355.668732 1226.222290,354.721924 
	C1222.499512,354.167908 1220.471313,351.976135 1221.210205,347.771820 
	C1221.575806,345.691528 1221.273682,343.493896 1221.273682,340.607941 
	C1222.988647,341.495209 1224.217407,342.134186 1225.449219,342.767731 
	C1233.402100,346.858307 1241.701294,348.320953 1250.484253,346.038391 
	C1254.338135,345.036804 1257.016357,342.735443 1257.820557,338.751495 
	C1258.646851,334.658478 1257.532837,330.969299 1254.041626,328.611267 
	C1251.050903,326.591248 1247.699951,325.076599 1244.423706,323.515961 
	C1241.435913,322.092773 1238.270508,321.040131 1235.294922,319.594635 
	C1224.302979,314.254913 1220.515015,307.978241 1221.642822,297.247101 
	C1222.526733,288.838348 1229.248413,281.231537 1239.438599,279.482941 
	C1246.468628,278.276642 1253.885864,279.026093 1261.108765,279.361877 
	C1265.258301,279.554779 1267.697876,281.852661 1266.779297,286.577850 
	C1266.449341,288.275116 1266.726318,290.090393 1266.726318,291.105286 
	C1259.734863,290.034698 1253.161011,288.567078 1246.520142,288.141693 
	C1239.968262,287.721985 1234.937256,291.482422 1233.818726,296.393036 
	C1232.534058,302.032349 1235.427612,307.266449 1241.666748,310.192078 
	C1247.658081,313.001587 1253.881226,315.351532 1259.727051,318.427094 
	C1266.771729,322.133331 1270.554077,328.083435 1269.997314,336.771729 
z"/>
<path fill="#181C2A" opacity="1.000000" stroke="none" 
	d="
M761.077881,321.928833 
	C771.356140,333.881042 766.685974,349.604828 751.503967,354.785156 
	C742.095093,357.995575 732.587708,357.673187 723.063721,354.934753 
	C719.200745,353.824005 717.080322,351.961243 717.823486,347.595093 
	C718.174744,345.531494 717.883789,343.358582 717.883789,340.464813 
	C725.650940,345.237488 733.442871,348.005676 741.937317,346.861267 
	C745.395874,346.395294 749.201294,345.201538 751.892944,343.109100 
	C756.069397,339.862366 755.522949,332.555023 750.979736,329.049164 
	C747.756958,326.562256 743.828186,324.956970 740.130798,323.127319 
	C735.977661,321.072266 731.505371,319.578796 727.565430,317.191589 
	C714.776550,309.442719 714.345398,291.709656 726.850891,283.462250 
	C737.491211,276.444916 749.117249,276.719421 760.847656,280.387970 
	C761.790283,280.682739 762.910034,282.101471 763.007446,283.090576 
	C763.295044,286.008209 763.110229,288.972443 763.110229,291.042755 
	C756.319092,289.996948 749.893494,288.551758 743.401672,288.132874 
	C736.588501,287.693268 731.208069,291.471405 730.232422,296.509247 
	C729.407959,300.766479 730.733765,307.124176 738.673462,310.615662 
	C746.218201,313.933563 753.451355,317.960175 761.077881,321.928833 
z"/>
<path fill="#181C2A" opacity="1.000000" stroke="none" 
	d="
M836.980835,346.991394 
	C840.052429,346.655884 842.734741,346.569824 845.275879,345.926544 
	C849.106384,344.956848 851.653381,342.526093 852.329773,338.418945 
	C852.983582,334.449280 851.937683,330.969940 848.660095,328.717682 
	C845.687866,326.675262 842.337952,325.152557 839.067017,323.583252 
	C835.934204,322.080322 832.622131,320.947998 829.505005,319.416443 
	C818.713379,314.114197 814.765686,307.402039 816.089050,296.893463 
	C817.122559,288.685669 824.294922,280.950623 834.263306,279.373871 
	C841.165527,278.282074 848.399170,278.985382 855.463074,279.329468 
	C859.589233,279.530426 862.073608,281.751556 861.169617,286.490387 
	C860.837891,288.229584 861.116211,290.085205 861.116211,291.047394 
	C854.247375,290.008820 847.663757,288.564270 841.014771,288.136169 
	C834.545898,287.719635 829.371460,291.541870 828.220459,296.382538 
	C826.959412,301.686584 830.142395,307.393799 836.175537,310.192108 
	C840.978577,312.419891 845.976746,314.232300 850.750854,316.516388 
	C861.339661,321.582367 865.208008,327.630676 864.415161,337.372833 
	C863.713684,345.993408 857.833801,352.251892 847.478821,355.328308 
	C838.431519,358.016205 829.478455,357.379730 820.504089,354.751740 
	C816.893799,353.694489 815.311951,351.832428 815.828918,348.009735 
	C816.130249,345.781433 815.883789,343.479034 815.883789,342.103485 
	C822.930176,343.771820 829.729248,345.381622 836.980835,346.991394 
z"/>
<path fill="#161A28" opacity="1.000000" stroke="none" 
	d="
M1132.536011,289.579041 
	C1126.382812,289.893097 1120.584351,289.893097 1114.550659,289.893097 
	C1114.550659,305.406647 1114.196655,320.378326 1114.668701,335.323975 
	C1115.012695,346.216644 1120.155151,348.957153 1132.384766,345.860931 
	C1132.548340,346.084778 1132.852661,346.308167 1132.867310,346.549103 
	C1133.436768,355.942078 1132.501465,356.914307 1122.864746,357.003754 
	C1110.211304,357.121185 1103.216064,350.650574 1102.952637,337.923431 
	C1102.659790,323.770050 1102.816406,309.607330 1102.778687,295.448669 
	C1102.774414,293.817322 1102.778198,292.185974 1102.778198,290.098816 
	C1098.506348,290.098816 1094.587769,290.098816 1090.410889,290.098816 
	C1090.410889,286.714844 1090.410889,283.774139 1090.410889,280.193176 
	C1094.248535,280.193176 1098.282715,280.193176 1102.778198,280.193176 
	C1102.778198,275.448395 1103.097168,271.294617 1102.690796,267.213043 
	C1102.263672,262.922577 1103.765259,260.716370 1107.996826,260.048309 
	C1109.927124,259.743561 1111.781738,258.959259 1114.236084,258.222778 
	C1114.236084,265.472260 1114.236084,272.513885 1114.236084,279.988007 
	C1120.700806,279.988007 1126.628784,279.988007 1132.890869,279.988007 
	C1132.890869,283.364777 1132.890869,286.314880 1132.536011,289.579041 
z"/>
<path fill="#151927" opacity="1.000000" stroke="none" 
	d="
M796.434326,308.000244 
	C796.434387,323.807556 796.434387,339.114807 796.434387,354.711487 
	C792.680481,354.711487 789.094849,354.711487 785.197754,354.711487 
	C785.197754,330.029602 785.197754,305.326477 785.197754,280.310394 
	C788.671082,280.310394 792.239380,280.310394 796.434326,280.310394 
	C796.434326,289.356384 796.434326,298.428314 796.434326,308.000244 
z"/>
<path fill="#1C202E" opacity="1.000000" stroke="none" 
	d="
M783.262451,252.370071 
	C784.349243,248.451904 786.630371,246.217789 790.343201,246.039276 
	C794.460815,245.841324 797.339905,247.796448 798.287354,251.942612 
	C799.192505,255.903702 796.893616,259.785217 792.944397,260.743164 
	C788.972717,261.706573 785.737976,260.396179 783.925720,256.583527 
	C783.385803,255.447540 783.425171,254.036240 783.262451,252.370071 
z"/>
<path fill="#FDFDFF" opacity="1.000000" stroke="none" 
	d="
M178.012344,318.994293 
	C169.184952,300.886932 160.496613,283.125580 151.251251,264.225555 
	C135.403870,296.344330 120.008598,327.546753 104.356430,359.269867 
	C98.775002,356.481628 93.503593,353.848297 87.766563,350.982330 
	C108.834679,308.454895 129.750381,266.235077 151.207336,222.922699 
	C172.626236,266.203064 193.463196,308.307556 214.595215,351.008240 
	C209.094009,353.771637 203.832932,356.414429 198.192963,359.247528 
	C191.412003,345.745148 184.781708,332.542725 178.012344,318.994293 
z"/>
<path fill="#F6F6F6" opacity="1.000000" stroke="none" 
	d="
M688.677002,295.510956 
	C690.268066,300.644379 691.659119,305.461548 693.201294,310.802307 
	C678.924561,310.802307 665.975647,310.802307 653.019348,310.802307 
	C653.509155,299.924561 659.204773,291.663391 668.098328,288.783386 
	C675.923523,286.249359 682.951416,288.460388 688.677002,295.510956 
z"/>
<path fill="#F6F6F6" opacity="1.000000" stroke="none" 
	d="
M1194.707275,300.626099 
	C1195.271973,304.123505 1195.714722,307.237579 1196.206543,310.696411 
	C1182.803589,310.696411 1169.744507,310.696411 1156.684204,310.696411 
	C1157.436523,299.015686 1164.489746,289.736206 1173.855713,288.121094 
	C1183.541138,286.450928 1190.552734,290.550995 1194.707275,300.626099 
z"/>
<path fill="#F6F6F6" opacity="1.000000" stroke="none" 
	d="
M521.965332,310.998474 
	C512.139282,310.980438 502.806732,310.965210 493.474243,310.932434 
	C493.157257,310.931305 492.840851,310.753235 492.524841,310.655579 
	C494.307251,295.537170 502.662598,287.340759 515.610901,288.007080 
	C525.763855,288.529541 531.828796,296.927063 531.804321,310.998474 
	C528.698059,310.998474 525.578430,310.998474 521.965332,310.998474 
z"/>
<path fill="#F5F5F5" opacity="1.000000" stroke="none" 
	d="
M1037.594971,322.361572 
	C1046.657715,320.478668 1055.377686,318.778687 1064.104980,317.077240 
	C1066.701172,332.119720 1061.044922,343.289337 1049.838013,346.474182 
	C1037.698730,349.924011 1028.117798,341.904205 1031.118042,330.344849 
	C1031.879395,327.411652 1035.140015,325.127136 1037.594971,322.361572 
z"/>
</svg>